<svg width="249" height="249" viewBox="0 0 249 249" fill="none" xmlns="http://www.w3.org/2000/svg">
<path d="M248.95 133.255C248.95 154.922 248.95 176.588 248.95 198.255C248.95 202.669 248.349 203.534 244.218 204.918C200.802 219.453 157.38 233.966 113.98 248.541C111.672 249.316 109.776 249.116 107.685 247.888C72.9262 227.483 38.1452 207.111 3.33077 186.794C0.967552 185.416 -0.00553683 183.664 2.3686e-05 180.935C0.0500684 137.228 0.0333868 93.5268 0.0389473 49.8195C0.0389473 46.2652 0.89527 45.0432 3.99247 44.0053C46.9753 29.6372 89.969 15.308 132.913 0.817119C136.745 -0.477412 139.658 -0.298856 143.239 1.82149C173.449 19.7329 203.798 37.3988 234.103 55.1427C237.784 57.2966 241.398 59.5676 245.169 61.5485C247.871 62.9658 249.011 64.8796 249 67.9765C248.911 89.7322 248.95 111.494 248.95 133.255ZM240.248 72.4347C239.03 72.8086 238.152 73.0541 237.29 73.3387C197.565 86.6076 157.852 99.8932 118.111 113.118C116.126 113.776 115.442 114.686 115.447 116.828C115.52 156.518 115.498 196.208 115.508 235.897C115.508 236.762 115.62 237.627 115.692 238.676C116.888 238.303 117.766 238.046 118.633 237.756C155.722 225.357 192.794 212.913 229.922 200.627C233.653 199.393 236.005 197.379 238.268 194.126C240.159 191.403 240.242 188.92 240.242 186.119C240.259 149.499 240.253 112.872 240.253 76.2514C240.248 75.0741 240.248 73.8911 240.248 72.4347ZM8.90797 176.377C11.2489 174.814 11.8495 176.282 12.1053 177.9C12.7225 181.756 15.208 183.786 18.4387 185.656C46.9586 202.206 75.395 218.906 103.86 235.551C104.699 236.042 105.566 236.483 106.795 237.147C106.795 235.556 106.795 234.457 106.795 233.358C106.795 211.887 106.918 190.41 106.728 168.939C106.656 160.77 108.291 152.406 104.988 144.61C105.917 143.405 106.718 142.133 106.734 140.85C106.851 132.764 106.701 124.673 106.851 116.588C106.896 114.256 106.195 112.984 104.143 111.789C73.2432 93.806 42.399 75.7213 11.5381 57.6649C10.7652 57.2129 9.95893 56.8223 8.90797 56.2587C8.90797 96.3165 8.90797 136.051 8.90797 176.377ZM233.981 65.2703C232.914 64.556 232.474 64.2324 232.001 63.9589C202.347 46.5888 172.76 29.0903 142.911 12.0606C139.692 10.2248 134.514 9.74496 130.967 10.9C93.2389 23.1422 55.6552 35.8475 18.0328 48.4302C17.1987 48.7092 16.398 49.0941 15.2803 49.5517C15.9476 50.0651 16.2701 50.372 16.6482 50.5952C47.7426 68.8079 78.837 87.0261 109.981 105.167C110.932 105.719 112.489 105.797 113.568 105.467C119.49 103.643 125.334 101.573 131.239 99.6985C132.897 99.1738 133.709 98.4143 133.524 96.5682C133.363 94.9496 133.492 93.3036 133.492 91.7073C136.622 91.7073 139.352 91.7073 142.06 91.7073C142.177 93.1586 142.282 94.4081 142.405 95.9145C172.888 85.7093 203.103 75.6042 233.981 65.2703Z" fill="black"/>
<path d="M133.791 117.687C133.791 114.723 133.791 111.967 133.791 109.015C136.678 109.015 139.473 109.015 142.463 109.015C142.463 111.84 142.463 114.665 142.463 117.687C139.668 117.687 136.878 117.687 133.791 117.687Z" fill="black"/>
<path d="M133.791 136.269C133.791 133.268 133.791 130.522 133.791 127.597C136.696 127.597 139.49 127.597 142.463 127.597C142.463 130.458 142.463 133.268 142.463 136.269C139.622 136.269 136.833 136.269 133.791 136.269Z" fill="black"/>
<path d="M177.525 156.09C179.995 157.688 182.17 159.094 184.582 160.652C183.218 163.26 181.922 165.735 180.485 168.478C178.131 166.96 175.898 165.525 173.433 163.943C174.792 161.335 176.082 158.855 177.525 156.09Z" fill="black"/>
<path d="M142.463 145.364C144.039 142.64 145.439 140.233 147.015 137.507C149.629 139.015 152.091 140.433 154.851 142.022C153.369 144.617 151.95 147.095 150.352 149.896C147.773 148.413 145.316 147 142.463 145.364Z" fill="black"/>
<path d="M208.532 173.433C211.001 175.05 213.156 176.462 215.552 178.033C214.167 180.683 212.876 183.141 211.476 185.821C209.037 184.256 206.804 182.819 204.403 181.273C205.825 178.564 207.162 176.03 208.532 173.433Z" fill="black"/>
<path d="M227.097 194.493C224.344 193.042 221.946 191.776 219.269 190.368C220.794 188.024 222.233 185.813 223.835 183.343C226.448 184.709 228.915 186.002 231.657 187.437C230.143 189.775 228.711 191.986 227.097 194.493Z" fill="black"/>
<path d="M121.403 139.058C124.314 138.078 126.805 137.242 129.704 136.269C130.631 138.978 131.535 141.601 132.552 144.583C129.852 145.5 127.231 146.388 124.195 147.418C123.262 144.606 122.381 141.977 121.403 139.058Z" fill="black"/>
<path d="M158.567 154.445C160.055 151.924 161.332 149.765 162.719 147.418C165.089 148.797 167.257 150.061 169.716 151.498C168.349 153.872 167.067 156.104 165.653 158.567C163.3 157.194 161.073 155.898 158.567 154.445Z" fill="black"/>
<path d="M196.112 177.149C193.478 175.622 191.061 174.219 188.299 172.616C189.794 170.002 191.22 167.522 192.797 164.761C195.414 166.277 197.888 167.71 200.687 169.33C199.132 171.991 197.683 174.465 196.112 177.149Z" fill="black"/>
<path d="M90.4327 158.567C89.6039 155.784 88.8401 153.206 87.9552 150.217C90.4529 149.277 92.7842 148.393 95.3678 147.418C96.1967 150.201 96.9859 152.835 97.8657 155.778C95.3322 156.731 92.9759 157.609 90.4327 158.567Z" fill="black"/>
<path d="M30.9701 178.081C28.1187 179.032 25.5467 179.892 22.6324 180.866C21.6858 178.064 20.7961 175.422 19.8209 172.535C22.5811 171.607 25.2272 170.718 28.1985 169.716C29.1623 172.632 30.0406 175.268 30.9701 178.081Z" fill="black"/>
<path d="M37.1642 167.233C40.1449 166.351 42.6934 165.597 45.5034 164.761C46.4704 167.304 47.335 169.567 48.3134 172.135C45.5603 172.975 42.9436 173.775 40.0198 174.672C39.0812 172.236 38.1882 169.901 37.1642 167.233Z" fill="black"/>
<path d="M53.2687 161.369C56.3757 160.374 59.0772 159.505 62.0053 158.567C62.8701 160.952 63.7885 163.136 64.3968 165.399C64.5458 165.96 63.8779 167.155 63.2876 167.401C61.1227 168.292 58.8387 168.898 56.2743 169.716C55.2903 166.977 54.3421 164.336 53.2687 161.369Z" fill="black"/>
<path d="M73.4092 163.522C72.437 160.628 71.5728 158.053 70.6119 155.199C73.358 154.266 76.0018 153.368 78.9298 152.373C79.8623 155.131 80.7605 157.774 81.7612 160.72C79.0151 161.64 76.3656 162.533 73.4092 163.522Z" fill="black"/>
<path d="M133.791 19.8209C136.664 19.8209 139.444 19.8209 142.463 19.8209C142.463 22.6153 142.463 25.4384 142.463 28.4925C139.736 28.4925 136.886 28.4925 133.791 28.4925C133.791 25.7964 133.791 22.979 133.791 19.8209Z" fill="black"/>
<path d="M142.463 38.403C142.463 41.4392 142.463 44.1764 142.463 47.0746C139.541 47.0746 136.746 47.0746 133.791 47.0746C133.791 44.1764 133.791 41.3702 133.791 38.403C136.678 38.403 139.467 38.403 142.463 38.403Z" fill="black"/>
<path d="M142.463 64.4179C139.499 64.4179 136.743 64.4179 133.791 64.4179C133.791 61.5311 133.791 58.7361 133.791 55.7463C136.616 55.7463 139.441 55.7463 142.463 55.7463C142.463 58.5413 142.463 61.3364 142.463 64.4179Z" fill="black"/>
<path d="M142.463 74.3284C142.463 76.8852 142.463 79.2389 142.463 81.7612C139.565 81.7612 136.775 81.7612 133.791 81.7612C133.791 79.3232 133.791 76.91 133.791 74.3284C136.603 74.3284 139.399 74.3284 142.463 74.3284Z" fill="black"/>
</svg>
